<svg xmlns="http://www.w3.org/2000/svg" xmlns:xlink="http://www.w3.org/1999/xlink" width="81" height="81" viewBox="0 0 81 81">
  <defs>
    <style>
      .cls-1 {
        fill: url(#linear-gradient);
      }

      .cls-2 {
        fill: #fff;
        stroke: #fff;
      }

      .cls-3 {
        filter: url(#Path_1);
      }
    </style>
    <linearGradient id="linear-gradient" x1="0.5" y1="0.5" x2="0.204" y2="0.821" gradientUnits="objectBoundingBox">
      <stop offset="0" stop-color="#fa0"/>
      <stop offset="1" stop-color="#ff6f00"/>
    </linearGradient>
    <filter id="Path_1" x="0" y="0" width="81" height="81" filterUnits="userSpaceOnUse">
      <feOffset dx="3" dy="3" input="SourceAlpha"/>
      <feGaussianBlur stdDeviation="5" result="blur"/>
      <feFlood flood-color="#2d2929" flood-opacity="0.149"/>
      <feComposite operator="in" in2="blur"/>
      <feComposite in="SourceGraphic"/>
    </filter>
  </defs>
  <g id="Group_24" data-name="Group 24" transform="translate(-35 -19)">
    <g class="cls-3" transform="matrix(1, 0, 0, 1, 35, 19)">
      <path id="Path_1-2" data-name="Path 1" class="cls-1" d="M25.5,0A25.5,25.5,0,1,1,0,25.5,25.5,25.5,0,0,1,25.5,0Z" transform="translate(12 12)"/>
    </g>
    <path id="Path_8" data-name="Path 8" class="cls-2" d="M77.424,19.331l38.279.138.594.75.844,1.125.688,1.078.641,1.094L119,24.578l.469.969.484,1.219L89.763,43.972l30.268.013-.219.578-.172.438-.312.75-.422.891-.375.7-.281.516-.391.641-.391.656-.453.641-.516.75-.531.672-.786.872-37.6-.231-.391-.469-.687-.844-.656-.937-.687-1.062L74.547,47.5l-.609-1.187-.625-1.406-.25-.641L103.079,27.4l-30.24-.009.318-.893.516-1.231.536-1.131.536-.992.6-.992.576-.893.754-1.032Z" transform="translate(-24 21)"/>
  </g>
</svg>
