<svg id="Group_39" data-name="Group 39" xmlns="http://www.w3.org/2000/svg" width="181.811" height="181.811" viewBox="0 0 181.811 181.811">
  <defs>
    <style>
      .cls-1 {
        fill: #fff;
      }

      .cls-2 {
        fill: #fa0;
      }
    </style>
  </defs>
  <ellipse id="Ellipse_17" data-name="Ellipse 17" class="cls-1" cx="90.906" cy="90.906" rx="90.906" ry="90.906"/>
  <path id="Path_37" data-name="Path 37" class="cls-2" d="M3220.081,3662.774a27.417,27.417,0,0,1,0-13.155,26.764,26.764,0,0,1,7.408-12.559c3.538-3.673,8.211-5.487,13.623-6.6s8.025,2.15,8.025,2.15l8.855,19.647s2.4,4.672,1.852,7.578-4.065,4.045-4.065,4.045-5.982,1.729-7.643,5.534,1,9.686,1,9.686a98.647,98.647,0,0,0,14.539,19.264,100.878,100.878,0,0,0,19.5,14.5s5.5,3.076,9.025,2.107,5.088-5.981,5.088-5.981,1.521-4.688,4.7-5.726,8.026,1.575,8.026,1.575l15.773,6.088s5.044,1.442,6.428,5.108-.894,9.559-.894,9.559-6.418,13.787-17.625,16.624-27.2-5.279-27.2-5.279-26.651-17.05-43.254-35.591A121.19,121.19,0,0,1,3220.081,3662.774Z" transform="translate(-3185.786 -3595.348)"/>
</svg>
