<svg id="Group_36" data-name="Group 36" xmlns="http://www.w3.org/2000/svg" width="181.811" height="181.811" viewBox="0 0 181.811 181.811">
  <defs>
    <style>
      .cls-1 {
        fill: #fff;
      }

      .cls-2 {
        fill: #fa0;
      }
    </style>
  </defs>
  <ellipse id="Ellipse_12" data-name="Ellipse 12" class="cls-1" cx="90.906" cy="90.906" rx="90.906" ry="90.906" transform="translate(0)"/>
  <ellipse id="Ellipse_13" data-name="Ellipse 13" class="cls-2" cx="58.439" cy="58.439" rx="58.439" ry="58.439" transform="translate(32.652 32.652)"/>
  <path id="Path_24" data-name="Path 24" class="cls-1" d="M3175.69,3681.106h31.139s-4.615-29.085-15.228-29.085S3175.69,3681.106,3175.69,3681.106Z" transform="translate(-3100.483 -3611.569)"/>
  <path id="Path_25" data-name="Path 25" class="cls-1" d="M3265,3683.06a60.842,60.842,0,0,0-2.959-11.759c-2.375-6.775-6.541-15.342-6.541-15.342s11.272,3.582,19.235,10.358,12.616,16.743,12.616,16.743Z" transform="translate(-3150.681 -3614.046)"/>
  <path id="Path_26" data-name="Path 26" class="cls-1" d="M3278.283,3683.06a59.868,59.868,0,0,1,3.017-11.759c2.421-6.775,6.668-15.342,6.668-15.342s-11.49,3.582-19.606,10.358-12.859,16.743-12.859,16.743Z" transform="translate(-3211.22 -3614.046)"/>
  <path id="Path_27" data-name="Path 27" class="cls-1" d="M3175.69,3652.021h31.139s-4.615,29.531-15.228,29.531S3175.69,3652.021,3175.69,3652.021Z" transform="translate(-3100.483 -3539.442)"/>
  <path id="Path_28" data-name="Path 28" class="cls-1" d="M3265,3655.959a62.557,62.557,0,0,1-2.959,11.939c-2.375,6.879-6.541,15.577-6.541,15.577s11.272-3.637,19.235-10.516,12.616-17,12.616-17Z" transform="translate(-3150.681 -3542.849)"/>
  <path id="Path_29" data-name="Path 29" class="cls-1" d="M3278.283,3655.959a61.55,61.55,0,0,0,3.017,11.939c2.421,6.879,6.668,15.577,6.668,15.577s-11.49-3.637-19.606-10.516-12.859-17-12.859-17Z" transform="translate(-3211.22 -3542.849)"/>
  <path id="Path_30" data-name="Path 30" class="cls-1" d="M3171.343,3749.487h33.1a105.162,105.162,0,0,1,1.114,14.275,110.161,110.161,0,0,1-1.114,14.478h-33.1a110.114,110.114,0,0,1-1.114-14.478A105.117,105.117,0,0,1,3171.343,3749.487Z" transform="translate(-3097.049 -3672.871)"/>
  <path id="Path_31" data-name="Path 31" class="cls-1" d="M3283.133,3749.487h24.611a72.168,72.168,0,0,1,1.843,14.771,61.825,61.825,0,0,1-1.843,14.082h-24.611a140.242,140.242,0,0,0,.79-14.082C3283.923,3757.045,3283.133,3749.487,3283.133,3749.487Z" transform="translate(-3168.06 -3672.871)"/>
  <path id="Path_32" data-name="Path 32" class="cls-1" d="M3309.587,3749.487h-24.611a72.186,72.186,0,0,0-1.842,14.771,61.84,61.84,0,0,0,1.842,14.082h24.611a140.156,140.156,0,0,1-.79-14.082C3308.8,3757.045,3309.587,3749.487,3309.587,3749.487Z" transform="translate(-3242.902 -3672.871)"/>
</svg>
