<svg id="Group_37" data-name="Group 37" xmlns="http://www.w3.org/2000/svg" width="181.811" height="181.811" viewBox="0 0 181.811 181.811">
  <defs>
    <style>
      .cls-1 {
        fill: #fff;
      }

      .cls-2 {
        fill: #fa0;
      }
    </style>
  </defs>
  <ellipse id="Ellipse_14" data-name="Ellipse 14" class="cls-1" cx="90.906" cy="90.906" rx="90.906" ry="90.906"/>
  <ellipse id="Ellipse_15" data-name="Ellipse 15" class="cls-2" cx="31.838" cy="31.838" rx="31.838" ry="31.838" transform="translate(88.392 52.365)"/>
  <path id="Path_33" data-name="Path 33" class="cls-2" d="M990.146,2938.385s4.113,4.114-15.976,30.23-49.22,2.511-49.22,2.511,22.6,44.7,72.825,29.13,52.566-48.615,52.566-48.615" transform="translate(-901.532 -2854.278)"/>
  <path id="Path_34" data-name="Path 34" class="cls-2" d="M1073.888,2952.941a63.538,63.538,0,0,0,10.405-4.058,12.872,12.872,0,0,0,4.884-4.3,17.878,17.878,0,0,1-5.613,0,14.138,14.138,0,0,1-4.789-2.08s5.028-.767,8.223-2.773a12.725,12.725,0,0,0,4.556-5.251,44.244,44.244,0,0,1-7.99.985,20.263,20.263,0,0,1-6.275-.985" transform="translate(-925.684 -2853.645)"/>
  <path id="Path_35" data-name="Path 35" class="cls-2" d="M1035.137,2898.6s12.2-5.957,12.486-7.492-11.342,1.353-11.342,1.353,5.723-4.995,4.058-4.995-10.718,4.995-10.718,4.995,3.2-5.021,1.249-3.746-5.463,4.683-9.053,8.845a38.532,38.532,0,0,0-5.307,7.8" transform="translate(-916.38 -2846.021)"/>
  <path id="Path_36" data-name="Path 36" class="cls-2" d="M994.711,2926.937a165.943,165.943,0,0,0-22.158-13.544c-12.266-6.155-25.1-12.529-28.136-10.551s16,18.464,16,18.464-13.716-2.11-11.606,1.759,18.64,12.485,18.64,12.485-14.6,2.682-12.661,5.979,20.4,7.21,20.4,7.21-6.462,5.935-5.979,9.5,9.321,4.576,9.321,4.576" transform="translate(-904.636 -2848.456)"/>
  <ellipse id="Ellipse_16" data-name="Ellipse 16" class="cls-2" cx="9.635" cy="20.108" rx="9.635" ry="20.108" transform="translate(72.054 76.243)"/>
</svg>
