<svg id="Group_40" data-name="Group 40" xmlns="http://www.w3.org/2000/svg" width="181.811" height="181.811" viewBox="0 0 181.811 181.811">
  <defs>
    <style>
      .cls-1 {
        fill: #fff;
      }

      .cls-2 {
        fill: #fa0;
      }
    </style>
  </defs>
  <ellipse id="Ellipse_18" data-name="Ellipse 18" class="cls-1" cx="90.906" cy="90.906" rx="90.906" ry="90.906" transform="translate(0)"/>
  <path id="Union_1" data-name="Union 1" class="cls-2" d="M22.956,93.637,2.9,100.262l6.31-19.98.014.014A51,51,0,1,1,22.956,93.637Z" transform="translate(39.798 39.798)"/>
  <path id="Path_39" data-name="Path 39" class="cls-1" d="M3219.634,3645.115a12.541,12.541,0,0,1,0-6.017,12.24,12.24,0,0,1,3.388-5.744,11.452,11.452,0,0,1,6.231-3.018,3.717,3.717,0,0,1,3.671.984l4.05,8.986s1.1,2.137.847,3.466-1.859,1.85-1.859,1.85-2.736.791-3.5,2.531.458,4.43.458,4.43a45.148,45.148,0,0,0,6.649,8.81,46.157,46.157,0,0,0,8.919,6.631s2.514,1.407,4.128.964,2.327-2.736,2.327-2.736.7-2.145,2.152-2.619,3.671.72,3.671.72l7.214,2.785s2.307.659,2.94,2.336-.409,4.371-.409,4.371-2.935,6.306-8.061,7.6-12.442-2.414-12.442-2.414-12.19-7.8-19.784-16.279A55.436,55.436,0,0,1,3219.634,3645.115Z" transform="translate(-3154.005 -3565.321)"/>
</svg>
