<svg xmlns="http://www.w3.org/2000/svg" width="50.335" height="50.335" viewBox="0 0 50.335 50.335">
  <defs>
    <style>
      .cls-1 {
        fill: #ff6f00;
      }

      .cls-2 {
        fill: #fff;
      }
    </style>
  </defs>
  <g id="Group_125" data-name="Group 125" transform="translate(-976.462 -3537.305)">
    <path id="Path_23" data-name="Path 23" class="cls-1" d="M25.168,0A25.168,25.168,0,1,1,0,25.168,25.168,25.168,0,0,1,25.168,0Z" transform="translate(976.462 3537.305)"/>
    <ellipse id="Ellipse_11" data-name="Ellipse 11" class="cls-2" cx="3.301" cy="3.301" rx="3.301" ry="3.301" transform="translate(988.977 3544.869)"/>
    <path id="Path_21" data-name="Path 21" class="cls-2" d="M3103.74,3696.6h6.595V3674.6h-6.595Z" transform="translate(-2114.799 -121.943)"/>
    <path id="Path_22" data-name="Path 22" class="cls-2" d="M3173.369,3673.768v22h6.405v-12.088s-.027-.439,0-1.736a2.76,2.76,0,0,1,3.615-2.611,2.537,2.537,0,0,1,2.346,2.611v13.824h6.342v-13.824s-.042-5.727-3.457-7.716-8.845,1.628-8.845,1.628v-2.093Z" transform="translate(-2174.851 -121.115)"/>
  </g>
</svg>
