<svg xmlns="http://www.w3.org/2000/svg" width="50.335" height="50.335" viewBox="0 0 50.335 50.335">
  <defs>
    <style>
      .cls-1 {
        fill: #ff6f00;
      }

      .cls-2 {
        fill: #fff;
      }
    </style>
  </defs>
  <g id="Group_124" data-name="Group 124" transform="translate(-893.278 -3537.406)">
    <g id="Group_101" data-name="Group 101">
      <ellipse id="Ellipse_14" data-name="Ellipse 14" class="cls-1" cx="25.168" cy="25.168" rx="25.168" ry="25.168" transform="translate(893.278 3537.406)"/>
      <ellipse id="Ellipse_15" data-name="Ellipse 15" class="cls-2" cx="8.814" cy="8.814" rx="8.814" ry="8.814" transform="translate(917.75 3551.904)"/>
      <path id="Path_33" data-name="Path 33" class="cls-2" d="M943,2938.385s1.139,1.139-4.423,8.369-13.627.7-13.627.7,6.257,12.375,20.162,8.065,14.553-13.459,14.553-13.459" transform="translate(-25.188 622.306)"/>
      <path id="Path_34" data-name="Path 34" class="cls-2" d="M1073.888,2939.588a17.588,17.588,0,0,0,2.881-1.124,3.564,3.564,0,0,0,1.352-1.191,4.955,4.955,0,0,1-1.554,0,3.92,3.92,0,0,1-1.326-.576,7.16,7.16,0,0,0,2.276-.768,3.523,3.523,0,0,0,1.261-1.453,12.253,12.253,0,0,1-2.212.272,5.611,5.611,0,0,1-1.737-.272" transform="translate(-139.579 625.309)"/>
      <path id="Path_35" data-name="Path 35" class="cls-2" d="M1021.668,2890.547s3.378-1.649,3.457-2.074-3.14.375-3.14.375,1.584-1.383,1.123-1.383a18.215,18.215,0,0,0-2.967,1.383s.886-1.39.346-1.037a15.549,15.549,0,0,0-2.506,2.449,10.675,10.675,0,0,0-1.469,2.16" transform="translate(-95.511 661.416)"/>
      <path id="Path_36" data-name="Path 36" class="cls-2" d="M958.1,2909.248a45.975,45.975,0,0,0-6.135-3.75c-3.4-1.7-6.95-3.469-7.79-2.921s4.43,5.112,4.43,5.112-3.8-.584-3.213.487,5.161,3.457,5.161,3.457-4.041.742-3.505,1.655,5.647,2,5.647,2-1.789,1.643-1.655,2.629,2.581,1.267,2.581,1.267" transform="translate(-39.888 649.886)"/>
      <ellipse id="Ellipse_16" data-name="Ellipse 16" class="cls-2" cx="2.668" cy="5.567" rx="2.668" ry="5.567" transform="translate(913.227 3558.514)"/>
    </g>
  </g>
</svg>
