<svg xmlns="http://www.w3.org/2000/svg" width="50.335" height="50.335" viewBox="0 0 50.335 50.335">
  <defs>
    <style>
      .cls-1 {
        fill: #ff6f00;
      }

      .cls-2 {
        fill: #fff;
      }
    </style>
  </defs>
  <g id="Group_126" data-name="Group 126" transform="translate(-1059.639 -3537.458)">
    <g id="Group_104" data-name="Group 104">
      <ellipse id="Ellipse_12" data-name="Ellipse 12" class="cls-1" cx="25.168" cy="25.168" rx="25.168" ry="25.168" transform="translate(1059.639 3537.458)"/>
      <ellipse id="Ellipse_13" data-name="Ellipse 13" class="cls-2" cx="16.179" cy="16.179" rx="16.179" ry="16.179" transform="translate(1068.678 3546.498)"/>
      <path id="Path_24" data-name="Path 24" class="cls-1" d="M3175.689,3660.073h8.621s-1.278-8.052-4.216-8.052S3175.689,3660.073,3175.689,3660.073Z" transform="translate(-2095.229 -103.363)"/>
      <path id="Path_25" data-name="Path 25" class="cls-1" d="M3258.132,3663.462a16.859,16.859,0,0,0-.819-3.255c-.658-1.876-1.811-4.248-1.811-4.248a17.778,17.778,0,0,1,5.325,2.867,15.564,15.564,0,0,1,3.493,4.635Z" transform="translate(-2166.843 -106.897)"/>
      <path id="Path_26" data-name="Path 26" class="cls-1" d="M3261.809,3663.462a16.552,16.552,0,0,1,.835-3.255c.67-1.876,1.846-4.248,1.846-4.248a18.257,18.257,0,0,0-5.428,2.867,15.568,15.568,0,0,0-3.56,4.635Z" transform="translate(-2183.603 -106.897)"/>
      <path id="Path_27" data-name="Path 27" class="cls-1" d="M3175.689,3652.021h8.621s-1.278,8.176-4.216,8.176S3175.689,3652.021,3175.689,3652.021Z" transform="translate(-2095.229 -83.394)"/>
      <path id="Path_28" data-name="Path 28" class="cls-1" d="M3258.132,3655.959a17.337,17.337,0,0,1-.819,3.306c-.658,1.9-1.811,4.312-1.811,4.312a17.68,17.68,0,0,0,5.325-2.911,15.8,15.8,0,0,0,3.493-4.707Z" transform="translate(-2166.843 -87.186)"/>
      <path id="Path_29" data-name="Path 29" class="cls-1" d="M3261.809,3655.959a17.02,17.02,0,0,0,.835,3.306c.67,1.9,1.846,4.312,1.846,4.312a18.151,18.151,0,0,1-5.428-2.911,15.794,15.794,0,0,1-3.56-4.707Z" transform="translate(-2183.603 -87.186)"/>
      <path id="Path_30" data-name="Path 30" class="cls-1" d="M3170.538,3749.487h9.165a29.11,29.11,0,0,1,.308,3.952,30.5,30.5,0,0,1-.308,4.008h-9.165a30.52,30.52,0,0,1-.308-4.008A29.133,29.133,0,0,1,3170.538,3749.487Z" transform="translate(-2090.331 -190.818)"/>
      <path id="Path_31" data-name="Path 31" class="cls-1" d="M3283.133,3749.487h6.813a19.976,19.976,0,0,1,.51,4.089,17.116,17.116,0,0,1-.51,3.9h-6.813a38.8,38.8,0,0,0,.219-3.9C3283.352,3751.58,3283.133,3749.487,3283.133,3749.487Z" transform="translate(-2191.636 -190.818)"/>
      <path id="Path_32" data-name="Path 32" class="cls-1" d="M3290.457,3749.487h-6.814a19.985,19.985,0,0,0-.51,4.089,17.124,17.124,0,0,0,.51,3.9h6.814a38.845,38.845,0,0,1-.219-3.9C3290.239,3751.58,3290.457,3749.487,3290.457,3749.487Z" transform="translate(-2212.356 -190.818)"/>
    </g>
  </g>
</svg>
