<svg xmlns="http://www.w3.org/2000/svg" xmlns:xlink="http://www.w3.org/1999/xlink" width="1920" height="1080" viewBox="0 0 1920 1080">
  <defs>
    <linearGradient id="linear-gradient" x1="0.5" y1="0.5" x2="0.204" y2="0.821" gradientUnits="objectBoundingBox">
      <stop offset="0" stop-color="#fa0"/>
      <stop offset="1" stop-color="#ff6f00"/>
    </linearGradient>
    <filter id="Path_1" x="35" y="13" width="81" height="81" filterUnits="userSpaceOnUse">
      <feOffset dx="3" dy="3" input="SourceAlpha"/>
      <feGaussianBlur stdDeviation="5" result="blur"/>
      <feFlood flood-color="#2d2929" flood-opacity="0.149"/>
      <feComposite operator="in" in2="blur"/>
      <feComposite in="SourceGraphic"/>
    </filter>
    <clipPath id="clip-Web_1920_3">
      <rect width="1920" height="1080"/>
    </clipPath>
  </defs>
  <g id="Web_1920_3" data-name="Web 1920 – 3" clip-path="url(#clip-Web_1920_3)">
    <rect width="1920" height="1080" fill="#312626"/>
    <g id="Group_42" data-name="Group 42" transform="translate(0 -6)">
      <g transform="matrix(1, 0, 0, 1, 0, 6)" filter="url(#Path_1)">
        <path id="Path_1-2" data-name="Path 1" d="M25.5,0A25.5,25.5,0,1,1,0,25.5,25.5,25.5,0,0,1,25.5,0Z" transform="translate(47 25)" fill="url(#linear-gradient)"/>
      </g>
      <path id="Path_8" data-name="Path 8" d="M77.424,19.331l38.279.138.594.75.844,1.125.688,1.078.641,1.094L119,24.578l.469.969.484,1.219L89.763,43.972l30.268.013-.219.578-.172.438-.312.75-.422.891-.375.7-.281.516-.391.641-.391.656-.453.641-.516.75-.531.672-.786.872-37.6-.231-.391-.469-.687-.844-.656-.937-.687-1.062L74.547,47.5l-.609-1.187-.625-1.406-.25-.641L103.079,27.4l-30.24-.009.318-.893.516-1.231.536-1.131.536-.992.6-.992.576-.893.754-1.032Z" transform="translate(-24 21)" fill="#fff" stroke="#fff" stroke-width="1"/>
    </g>
    <text id="News" transform="translate(690.5 58)" fill="#fff" font-size="30" font-family="SegoeUI, Segoe UI"><tspan x="0" y="0">News</tspan></text>
    <text id="Book" transform="translate(896.594 58)" fill="#fff" font-size="30" font-family="SegoeUI, Segoe UI"><tspan x="0" y="0">Book</tspan></text>
    <text id="Article" transform="translate(1292.806 58)" fill="#fff" font-size="30" font-family="SegoeUI, Segoe UI"><tspan x="0" y="0">Article</tspan></text>
    <text id="Contact_" data-name="Contact " transform="translate(1759 58)" fill="#fff" font-size="30" font-family="SegoeUI, Segoe UI"><tspan x="0" y="0">Contact </tspan></text>
    <text id="Galery" transform="translate(1523.05 58)" fill="#fff" font-size="30" font-family="SegoeUI, Segoe UI"><tspan x="0" y="0">Galery</tspan></text>
    <text id="Class" transform="translate(1091.146 58)" fill="#fff" font-size="30" font-family="SegoeUI, Segoe UI"><tspan x="0" y="0">Class</tspan></text>
    <g id="Group_43" data-name="Group 43" transform="translate(0 -6)">
      <line id="Line_1" data-name="Line 1" y2="47" transform="translate(830.5 26.5)" fill="none" stroke="#fa0" stroke-width="4"/>
      <line id="Line_1-2" data-name="Line 1" y2="47" transform="translate(1032.216 26.5)" fill="none" stroke="#fa0" stroke-width="4"/>
      <line id="Line_1-3" data-name="Line 1" y2="47" transform="translate(1233.933 26.5)" fill="none" stroke="#fa0" stroke-width="4"/>
      <line id="Line_1-4" data-name="Line 1" y2="47" transform="translate(1461.649 26.5)" fill="none" stroke="#fa0" stroke-width="4"/>
      <line id="Line_1-5" data-name="Line 1" y2="47" transform="translate(1703.366 26.5)" fill="none" stroke="#fa0" stroke-width="4"/>
    </g>
    <line id="Line_5" data-name="Line 5" x2="1920" transform="translate(0.5 93.5)" fill="none" stroke="#707070" stroke-width="1" opacity="0.3"/>
    <path id="Union_2" data-name="Union 2" d="M-1951,944.573V35.123H-417.417l-.38-.362L-381.284,0l36.893,35.123h205v909.45Z" transform="translate(1998 106.705)" fill="#f7f7f7"/>
    <g id="Union_3" data-name="Union 3" transform="translate(2508.745 166)" fill="#fff">
      <path d="M -671.2447509765625 866.9172973632813 L -1905.24560546875 866.9172973632813 L -1905.24560546875 162.0693206787109 L -1905.24560546875 161.8656463623047 L -1905.387939453125 161.7199859619141 L -1950.301391601563 115.7238159179688 L -1905.387939453125 69.72764587402344 L -1905.24560546875 69.58198547363281 L -1905.24560546875 69.37831878662109 L -1905.24560546875 0.4999820291996002 L -671.2447509765625 0.4999820291996002 L -671.2447509765625 866.9172973632813 Z" stroke="none"/>
      <path d="M -671.7447509765625 866.4172973632813 L -671.7447509765625 0.9999819993972778 L -1904.74560546875 0.9999819993972778 L -1904.74560546875 69.37831878662109 L -1904.74560546875 69.78565216064453 L -1905.030029296875 70.07698059082031 L -1949.6025390625 115.7238159179688 L -1905.030029296875 161.3706512451172 L -1904.74560546875 161.6619873046875 L -1904.74560546875 162.0693206787109 L -1904.74560546875 866.4172973632813 L -671.7447509765625 866.4172973632813 M -670.7447509765625 867.4172973632813 L -1905.74560546875 867.4172973632813 L -1905.74560546875 162.0693206787109 L -1951.000244140625 115.7238159179688 L -1905.74560546875 69.37831878662109 L -1905.74560546875 -1.798502671590541e-05 L -670.7447509765625 -1.798502671590541e-05 L -670.7447509765625 867.4172973632813 Z" stroke="none" fill="#707070"/>
    </g>
    <g id="Group_45" data-name="Group 45" transform="translate(-537 37)">
      <circle id="Ellipse_20" data-name="Ellipse 20" cx="131.959" cy="131.959" r="131.959" transform="translate(1197 153)" fill="#e6c4c4"/>
      <circle id="Ellipse_20-2" data-name="Ellipse 20" cx="131.959" cy="131.959" r="131.959" transform="translate(1467.511 153)" fill="#e6c4c4"/>
      <circle id="Ellipse_20-3" data-name="Ellipse 20" cx="131.959" cy="131.959" r="131.959" transform="translate(1197 430.87)" fill="#e6c4c4"/>
      <circle id="Ellipse_20-4" data-name="Ellipse 20" cx="131.959" cy="131.959" r="131.959" transform="translate(1467.511 430.87)" fill="#e6c4c4"/>
      <circle id="Ellipse_20-5" data-name="Ellipse 20" cx="131.959" cy="131.959" r="131.959" transform="translate(1197 708.74)" fill="#e6c4c4"/>
      <circle id="Ellipse_20-6" data-name="Ellipse 20" cx="131.959" cy="131.959" r="131.959" transform="translate(1467.511 708.74)" fill="#e6c4c4"/>
      <circle id="Ellipse_20-7" data-name="Ellipse 20" cx="131.959" cy="131.959" r="131.959" transform="translate(1737.883 153)" fill="#e6c4c4"/>
      <circle id="Ellipse_20-8" data-name="Ellipse 20" cx="131.959" cy="131.959" r="131.959" transform="translate(2008.254 153)" fill="#e6c4c4"/>
      <circle id="Ellipse_20-9" data-name="Ellipse 20" cx="131.959" cy="131.959" r="131.959" transform="translate(1737.883 430.87)" fill="#e6c4c4"/>
      <circle id="Ellipse_20-10" data-name="Ellipse 20" cx="131.959" cy="131.959" r="131.959" transform="translate(2008.254 430.87)" fill="#e6c4c4"/>
      <circle id="Ellipse_20-11" data-name="Ellipse 20" cx="131.959" cy="131.959" r="131.959" transform="translate(1737.883 708.74)" fill="#e6c4c4"/>
      <circle id="Ellipse_20-12" data-name="Ellipse 20" cx="131.959" cy="131.959" r="131.959" transform="translate(2008.254 708.74)" fill="#e6c4c4"/>
    </g>
    <text id="ALBUM" transform="translate(233 476)" fill="#464040" font-size="35" font-family="SegoeUI, Segoe UI"><tspan x="0" y="0">ALBUM</tspan></text>
    <text id="ALL_PHOTOS" data-name="ALL PHOTOS" transform="translate(233 301)" fill="#464040" font-size="35" font-family="SegoeUI, Segoe UI"><tspan x="0" y="0">ALL PHOTOS</tspan></text>
    <g id="Rectangle_13" data-name="Rectangle 13" transform="translate(1813 166)" fill="#fff" stroke="#707070" stroke-width="1">
      <rect width="25" height="867" stroke="none"/>
      <rect x="0.5" y="0.5" width="24" height="866" fill="none"/>
    </g>
    <g id="Rectangle_14" data-name="Rectangle 14" transform="translate(1813 167)" fill="#fff" stroke="#707070" stroke-width="1">
      <rect width="25" height="23" stroke="none"/>
      <rect x="0.5" y="0.5" width="24" height="22" fill="none"/>
    </g>
    <g id="Rectangle_15" data-name="Rectangle 15" transform="translate(1813 1010)" fill="#fff" stroke="#707070" stroke-width="1">
      <rect width="25" height="23" stroke="none"/>
      <rect x="0.5" y="0.5" width="24" height="22" fill="none"/>
    </g>
    <g id="Rectangle_16" data-name="Rectangle 16" transform="translate(1813 278)" fill="#fff" stroke="#707070" stroke-width="1">
      <rect width="25" height="153" stroke="none"/>
      <rect x="0.5" y="0.5" width="24" height="152" fill="none"/>
    </g>
  </g>
</svg>
