<svg xmlns="http://www.w3.org/2000/svg" xmlns:xlink="http://www.w3.org/1999/xlink" width="1920" height="1080" viewBox="0 0 1920 1080">
  <defs>
    <style>
      .cls-1 {
        clip-path: url(#clip-Web_1920_4);
      }

      .cls-2, .cls-7, .cls-8 {
        stroke: #707070;
      }

      .cls-2 {
        fill: url(#pattern);
      }

      .cls-3 {
        fill: url(#linear-gradient);
      }

      .cls-4, .cls-5, .cls-8, .cls-9 {
        fill: #fff;
      }

      .cls-4 {
        stroke: #fff;
      }

      .cls-5 {
        font-size: 30px;
      }

      .cls-10, .cls-5, .cls-9 {
        font-family: SegoeUI, Segoe UI;
      }

      .cls-12, .cls-6 {
        fill: none;
      }

      .cls-6 {
        stroke: #fa0;
        stroke-width: 4px;
      }

      .cls-7 {
        fill: url(#pattern-2);
      }

      .cls-8 {
        opacity: 0.36;
      }

      .cls-9 {
        font-size: 55px;
      }

      .cls-10 {
        font-size: 17px;
      }

      .cls-11 {
        stroke: none;
      }

      .cls-13 {
        fill: #fa0;
      }

      .cls-14 {
        filter: url(#Path_1);
      }
    </style>
    <pattern id="pattern" preserveAspectRatio="xMidYMid slice" width="100%" height="100%" viewBox="0 0 5184 3456">
      <image width="5184" height="3456" xlink:href="D:/Kantor/image/Bu%20Zipora/IMG_6367.JPG"/>
    </pattern>
    <linearGradient id="linear-gradient" x1="0.5" y1="0.5" x2="0.204" y2="0.821" gradientUnits="objectBoundingBox">
      <stop offset="0" stop-color="#fa0"/>
      <stop offset="1" stop-color="#ff6f00"/>
    </linearGradient>
    <filter id="Path_1" x="37" y="10" width="81" height="81" filterUnits="userSpaceOnUse">
      <feOffset dx="3" dy="3" input="SourceAlpha"/>
      <feGaussianBlur stdDeviation="5" result="blur"/>
      <feFlood flood-color="#2d2929" flood-opacity="0.149"/>
      <feComposite operator="in" in2="blur"/>
      <feComposite in="SourceGraphic"/>
    </filter>
    <pattern id="pattern-2" width="1" height="1" viewBox="0 0 494 661">
      <image preserveAspectRatio="xMidYMid slice" width="656.571" height="661" xlink:href="D:/Kantor/image/Bu%20Zipora/About.png"/>
    </pattern>
    <clipPath id="clip-Web_1920_4">
      <rect width="1920" height="1080"/>
    </clipPath>
  </defs>
  <g id="Web_1920_4" data-name="Web 1920 – 4" class="cls-1">
    <rect class="cls-13" width="1920" height="1080"/>
    <g id="IMG_6367" class="cls-2">
      <rect class="cls-11" width="1920" height="1080"/>
      <rect class="cls-12" x="0.5" y="0.5" width="1919" height="1079"/>
    </g>
    <g id="Group_46" data-name="Group 46" transform="translate(49 22)">
      <g class="cls-14" transform="matrix(1, 0, 0, 1, -49, -22)">
        <path id="Path_1-2" data-name="Path 1" class="cls-3" d="M25.5,0A25.5,25.5,0,1,1,0,25.5,25.5,25.5,0,0,1,25.5,0Z" transform="translate(49 22)"/>
      </g>
      <path id="Path_8" data-name="Path 8" class="cls-4" d="M77.424,19.331l38.279.138.594.75.844,1.125.688,1.078.641,1.094L119,24.578l.469.969.484,1.219L89.763,43.972l30.268.013-.219.578-.172.438-.312.75-.422.891-.375.7-.281.516-.391.641-.391.656-.453.641-.516.75-.531.672-.786.872-37.6-.231-.391-.469-.687-.844-.656-.937-.687-1.062L74.547,47.5l-.609-1.187-.625-1.406-.25-.641L103.079,27.4l-30.24-.009.318-.893.516-1.231.536-1.131.536-.992.6-.992.576-.893.754-1.032Z" transform="translate(-71 -10)"/>
    </g>
    <text id="News" class="cls-5" transform="translate(692.5 55)"><tspan x="0" y="0">News</tspan></text>
    <text id="Book" class="cls-5" transform="translate(898.594 55)"><tspan x="0" y="0">Book</tspan></text>
    <text id="Article" class="cls-5" transform="translate(1294.806 55)"><tspan x="0" y="0">Article</tspan></text>
    <text id="Contact_" data-name="Contact " class="cls-5" transform="translate(1761 55)"><tspan x="0" y="0">Contact </tspan></text>
    <text id="Galery" class="cls-5" transform="translate(1525.05 55)"><tspan x="0" y="0">Galery</tspan></text>
    <text id="Class" class="cls-5" transform="translate(1093.146 55)"><tspan x="0" y="0">Class</tspan></text>
    <g id="Group_47" data-name="Group 47" transform="translate(832.5 17.5)">
      <line id="Line_1" data-name="Line 1" class="cls-6" y2="47"/>
      <line id="Line_1-2" data-name="Line 1" class="cls-6" y2="47" transform="translate(201.716)"/>
      <line id="Line_1-3" data-name="Line 1" class="cls-6" y2="47" transform="translate(403.433)"/>
      <line id="Line_1-4" data-name="Line 1" class="cls-6" y2="47" transform="translate(631.149)"/>
      <line id="Line_1-5" data-name="Line 1" class="cls-6" y2="47" transform="translate(872.866)"/>
    </g>
    <g id="About" class="cls-7" transform="translate(125 274)">
      <rect class="cls-11" width="494" height="661"/>
      <rect class="cls-12" x="0.5" y="0.5" width="493" height="660"/>
    </g>
    <g id="Rectangle_26" data-name="Rectangle 26" class="cls-8" transform="translate(803 274)">
      <rect class="cls-11" width="1004" height="661"/>
      <rect class="cls-12" x="0.5" y="0.5" width="1003" height="660"/>
    </g>
    <text id="Who_Am_I_" data-name="Who Am I?" class="cls-9" transform="translate(827 184)"><tspan x="0" y="0">Who Am I?</tspan></text>
    <text id="Zipora_Trie_Wardhani_Obadja_M.B.A" data-name="Zipora Trie Wardhani Obadja, M.B.A" class="cls-10" transform="translate(893.68 313.142)"><tspan x="0" y="0">Zipora Trie Wardhani Obadja, M.B.A</tspan></text>
    <text id="Seorang_wanita_berkelahiran_bandung_29_September_yang_berdomisili_di_bandung._Ibu_dari_1_orang_putri_dan_2_orang_putra_Suami_dari_seorang_wiraswasta_di_Bandung_Tn._Hendra_Kurniawan_Jahja_Saputra_yang_sangat_mendukung_mendukung_perkembangkan_karir_Zipora" data-name="Seorang wanita berkelahiran bandung 29 September
yang berdomisili di bandung.
Ibu dari 1 orang putri dan 2 orang putra,
Suami dari seorang wiraswasta di Bandung
Tn.&quot;Hendra Kurniawan Jahja Saputra&quot; yang sangat 
mendukung mendukung perkembangkan karir Zipora" class="cls-10" transform="translate(894 375)"><tspan x="0" y="0">Seorang wanita berkelahiran bandung 29 September</tspan><tspan x="0" y="22">yang berdomisili di bandung.</tspan><tspan x="0" y="44">Ibu dari 1 orang putri dan 2 orang putra,</tspan><tspan x="0" y="66">Suami dari seorang wiraswasta di Bandung</tspan><tspan x="0" y="88">Tn.&quot;Hendra Kurniawan Jahja Saputra&quot; yang sangat </tspan><tspan x="0" y="110">mendukung mendukung perkembangkan karir Zipora. </tspan><tspan x="0" y="132"></tspan></text>
    <text id="Life_coach_trainer" data-name="Life coach trainer" class="cls-10" transform="translate(894 335)"><tspan x="0" y="0">Life coach trainer</tspan></text>
    <text id="Berhasil_menyelesaikan_jenjang_studi_hingga_master_sambal_berkerja._Menghabisaka_sebagian_besar_hidup_di_bidang_Sales_dan_Marketing" data-name="Berhasil menyelesaikan jenjang studi hingga master
sambal berkerja. 
Menghabisaka sebagian besar hidup di bidang 
Sales dan Marketing" class="cls-10" transform="translate(1337 529)"><tspan x="0" y="0">Berhasil menyelesaikan jenjang studi hingga master</tspan><tspan x="0" y="22">sambal berkerja. </tspan><tspan x="0" y="44">Menghabisaka sebagian besar hidup di bidang </tspan><tspan x="0" y="66">Sales dan Marketing</tspan></text>
    <text id="Kecintaanku_akan_dunia_bisnis_dirintis_sejak_lepas_dari_dunia_professional_dengan_membangun_perusahaan_bersama_teman_-_temanku_di_CV_IndoEuro_lalu_membangun_dan_berkembang_sebagai_co_-_founder_Rai_Fitness_Indonesia." data-name="Kecintaanku akan dunia bisnis dirintis sejak lepas dari dunia
professional dengan membangun perusahaan  bersama 
teman - temanku di CV IndoEuro lalu membangun dan 
berkembang sebagai co - founder Rai Fitness Indonesia." class="cls-10" transform="translate(891 635)"><tspan x="0" y="0">Kecintaanku akan dunia bisnis dirintis sejak lepas dari dunia</tspan><tspan x="0" y="22" xml:space="preserve">professional dengan membangun perusahaan  bersama </tspan><tspan x="0" y="44">teman - temanku di CV IndoEuro lalu membangun dan </tspan><tspan x="0" y="66">berkembang sebagai co - founder Rai Fitness Indonesia.</tspan></text>
    <text id="Berawal_sebagai_dosen_tamu_di_D3_UNPAR_Universitas_Parahyangan_Bandung_dan_alumni_sana_4_tahun_lalu_karena_kecintaanku_pada_berbagai_ilmu_tepatnya_awal_tahun_2015_semua_dilepaskan_demi_mengembangkan_temansharing_komunitas_dan_training_center_yang_d" data-name="Berawal sebagai dosen tamu di D3 UNPAR (Universitas Parahyangan) Bandung dan alumni sana 4 tahun lalu karena 
kecintaanku pada berbagai ilmu, tepatnya awal tahun 2015, semua dilepaskan demi mengembangkan #temansharing, 
komunitas dan training center yang d" class="cls-10" transform="translate(891 757)"><tspan x="0" y="0">Berawal sebagai dosen tamu di D3 UNPAR (Universitas Parahyangan) Bandung dan alumni sana 4 tahun lalu karena </tspan><tspan x="0" y="22">kecintaanku pada berbagai ilmu, tepatnya awal tahun 2015, semua dilepaskan demi mengembangkan #temansharing, </tspan><tspan x="0" y="44">komunitas dan training center yang didirikan sejak 2009 untuk membantu banyak fresh graduate.</tspan></text>
  </g>
</svg>
